# xmcd CD database file
#
# Track frame offsets:
#	150
#	15712
#	31865
#	47745
#	62222
#	78950
#	89241
#	109609
#	129175
#	143369
#	161534
#	183642
#
# Disc length: 2695 seconds
#
# Revision: 0
# Processed by: cddbd v1.5.2PL0 Copyright (c) Steve Scherf et al.
# Submitted via: CDex 1.51
#
DISCID=950a850c
DTITLE=Various Artist - Best of Megahits 20
DYEAR=1900
DGENRE=Blues
TTITLE0=Lilli Allen - Not fair
TTITLE1=James Blunt and Lara Pausini - Primavera
TTITLE2=Marit Larsen - If a song could get me you
TTITLE3=David Guetta and Kelly Rowland - When Loves takes over
TTITLE4=Colbie Callait - Fallin for you
TTITLE5=Emiliana Torrini - Jungle Drum
TTITLE6=Linkin Park - New Divide
TTITLE7=Agnes - Release me
TTITLE8=Cassandra Steen - Stadt
TTITLE9=Green Day - 21 Guns
TTITLE10=Black eyed peas - I gotta feeling
TTITLE11=Gossip - Heavy cross
EXTD=
EXTT0=
EXTT1=
EXTT2=
EXTT3=
EXTT4=
EXTT5=
EXTT6=
EXTT7=
EXTT8=
EXTT9=
EXTT10=
EXTT11=
PLAYORDER=
